<svg width="2167" height="1624" viewBox="0 0 2167 1624" fill="none" xmlns="http://www.w3.org/2000/svg">
<g clip-path="url(#clip0_265_309)">
<rect width="2167" height="1624" fill="#772E52"/>
<path d="M2095.14 866.432C2099.31 863.317 2105.31 865.689 2106.22 870.818L2117.52 934.398C2117.99 937.028 2116.92 939.695 2114.76 941.272L2052.33 986.938C2048.18 989.972 2042.29 987.652 2041.32 982.604L2029.42 920.398C2028.92 917.765 2029.96 915.076 2032.11 913.472L2095.14 866.432Z" fill="#C05D6A"/>
<path d="M2092.52 936.159L2085.15 932.808L2082.93 937.686L2076.52 934.771L2078.74 929.892L2065.17 923.725C2064.05 923.219 2063.19 923.067 2062.56 923.269C2061.94 923.472 2061.36 924.167 2060.82 925.355C2060.41 926.268 2060.11 927.061 2059.94 927.732L2053.34 924.729C2053.56 922.826 2054.09 920.969 2054.91 919.16C2056.35 915.981 2058.17 913.973 2060.36 913.138C2062.54 912.302 2065.16 912.578 2068.22 913.965L2082.93 920.656L2084.65 916.873L2091.07 919.788L2089.35 923.571L2096.72 926.922L2092.52 936.159Z" fill="#C7A2FF"/>
<rect x="2057.6" y="932.641" width="8.75" height="8.75" transform="rotate(114.444 2057.6 932.641)" fill="#AF99D7"/>
<circle cx="1587.02" cy="1267.69" r="463.5" transform="rotate(114.444 1587.02 1267.69)" fill="#AF99D7"/>
<circle cx="1743.44" cy="748.372" r="12" transform="rotate(114.444 1743.44 748.372)" fill="#C05D6A"/>
<circle cx="1801.86" cy="1371.39" r="18" transform="rotate(114.444 1801.86 1371.39)" fill="#C7A2FF"/>
<circle cx="1310.19" cy="698.629" r="18" transform="rotate(114.444 1310.19 698.629)" fill="#C7A2FF"/>
<circle cx="1191.09" cy="1071.8" r="64" transform="rotate(114.444 1191.09 1071.8)" stroke="#C05D6A" stroke-width="4"/>
<circle cx="561.87" cy="322.228" r="648" transform="rotate(114.444 561.87 322.228)" fill="#AF99D7"/>
<path d="M2198.21 1047.96C2127.4 920.404 1933.39 676.839 1723.84 723.052C1461.9 780.819 1180.54 957.161 1027.68 718.535C905.392 527.634 821.698 100.636 795.136 -89.0001" stroke="#C05D6A" stroke-width="3"/>
<rect width="102.336" height="161.797" rx="24" transform="matrix(-0.761538 0.64812 -0.834759 -0.550615 980.335 324.955)" fill="#5869FF"/>
<rect width="76.0655" height="121.779" rx="20" transform="matrix(-0.0196832 0.999806 -0.960264 -0.279092 1324.63 820.648)" fill="#B53CC9"/>
<rect x="1782.55" y="715.734" width="56" height="96.6203" rx="10" transform="rotate(114.444 1782.55 715.734)" fill="#100A19"/>
</g>
<defs>
<clipPath id="clip0_265_309">
<rect width="2167" height="1624" fill="white"/>
</clipPath>
</defs>
</svg>
